<svg viewBox="0 0 1200 750" xmlns="http://www.w3.org/2000/svg">
  <defs>
    <pattern id="mapgrid" width="60" height="60" patternUnits="userSpaceOnUse">
      <rect width="60" height="60" fill="#0c1220"/>
      <line x1="0" y1="0" x2="60" y2="0" stroke="#111825" stroke-width="1"/>
      <line x1="0" y1="0" x2="0" y2="60" stroke="#111825" stroke-width="1"/>
    </pattern>
  </defs>

  <!-- Map background -->
  <rect width="1200" height="750" fill="#0c1220"/>
  <rect width="1200" height="750" fill="url(#mapgrid)"/>

  <!-- Water body (river) -->
  <path d="M 0 480 C 150 460 250 500 380 470 C 480 448 560 480 680 455 C 800 432 900 465 1000 440 C 1100 418 1150 430 1200 420" fill="none" stroke="#1a3a5c" stroke-width="36" stroke-linecap="round"/>
  <path d="M 0 480 C 150 460 250 500 380 470 C 480 448 560 480 680 455 C 800 432 900 465 1000 440 C 1100 418 1150 430 1200 420" fill="none" stroke="#1e4570" stroke-width="28" stroke-linecap="round"/>
  <path d="M 0 480 C 150 460 250 500 380 470 C 480 448 560 480 680 455 C 800 432 900 465 1000 440 C 1100 418 1150 430 1200 420" fill="none" stroke="#245280" stroke-width="20" stroke-linecap="round"/>

  <!-- Park / green areas -->
  <rect x="120" y="160" width="180" height="140" fill="#0e2818" rx="4"/>
  <rect x="700" y="240" width="220" height="160" fill="#0e2818" rx="4"/>
  <rect x="980" y="510" width="180" height="120" fill="#0e2818" rx="4"/>
  <rect x="380" y="550" width="140" height="100" fill="#0e2818" rx="4"/>

  <!-- Major roads (white/light) -->
  <!-- Horizontal major roads -->
  <line x1="0" y1="200" x2="1200" y2="200" stroke="#2a2f3e" stroke-width="8"/>
  <line x1="0" y1="200" x2="1200" y2="200" stroke="#3a4055" stroke-width="4"/>
  <line x1="0" y1="350" x2="1200" y2="350" stroke="#2a2f3e" stroke-width="8"/>
  <line x1="0" y1="350" x2="1200" y2="350" stroke="#3a4055" stroke-width="4"/>
  <line x1="0" y1="550" x2="1200" y2="550" stroke="#2a2f3e" stroke-width="6"/>
  <line x1="0" y1="550" x2="1200" y2="550" stroke="#353b52" stroke-width="3"/>
  <line x1="0" y1="650" x2="1200" y2="650" stroke="#2a2f3e" stroke-width="6"/>
  <line x1="0" y1="650" x2="1200" y2="650" stroke="#353b52" stroke-width="3"/>

  <!-- Vertical major roads -->
  <line x1="200" y1="0" x2="200" y2="750" stroke="#2a2f3e" stroke-width="8"/>
  <line x1="200" y1="0" x2="200" y2="750" stroke="#3a4055" stroke-width="4"/>
  <line x1="500" y1="0" x2="500" y2="750" stroke="#2a2f3e" stroke-width="8"/>
  <line x1="500" y1="0" x2="500" y2="750" stroke="#3a4055" stroke-width="4"/>
  <line x1="800" y1="0" x2="800" y2="750" stroke="#2a2f3e" stroke-width="8"/>
  <line x1="800" y1="0" x2="800" y2="750" stroke="#3a4055" stroke-width="4"/>
  <line x1="1050" y1="0" x2="1050" y2="750" stroke="#2a2f3e" stroke-width="6"/>
  <line x1="1050" y1="0" x2="1050" y2="750" stroke="#353b52" stroke-width="3"/>

  <!-- Minor roads -->
  <line x1="0" y1="100" x2="1200" y2="100" stroke="#181e2c" stroke-width="3"/>
  <line x1="0" y1="275" x2="1200" y2="275" stroke="#181e2c" stroke-width="2"/>
  <line x1="0" y1="430" x2="1200" y2="430" stroke="#181e2c" stroke-width="2"/>
  <line x1="0" y1="600" x2="1200" y2="600" stroke="#181e2c" stroke-width="2"/>
  <line x1="0" y1="700" x2="1200" y2="700" stroke="#181e2c" stroke-width="2"/>
  <line x1="80" y1="0" x2="80" y2="750" stroke="#181e2c" stroke-width="2"/>
  <line x1="340" y1="0" x2="340" y2="750" stroke="#181e2c" stroke-width="2"/>
  <line x1="640" y1="0" x2="640" y2="750" stroke="#181e2c" stroke-width="2"/>
  <line x1="920" y1="0" x2="920" y2="750" stroke="#181e2c" stroke-width="2"/>
  <line x1="1150" y1="0" x2="1150" y2="750" stroke="#181e2c" stroke-width="2"/>

  <!-- Diagonal / freeway-style road -->
  <path d="M 0 600 C 200 560 350 480 500 420 C 650 360 780 300 900 240 C 1020 180 1120 140 1200 120" fill="none" stroke="#1e2638" stroke-width="10"/>
  <path d="M 0 600 C 200 560 350 480 500 420 C 650 360 780 300 900 240 C 1020 180 1120 140 1200 120" fill="none" stroke="#2a3448" stroke-width="6"/>

  <!-- Road labels -->
  <text x="600" y="196" font-family="Arial, Helvetica, sans-serif" font-size="10" fill="#6b7590" text-anchor="middle">BURNSIDE AVE</text>
  <text x="600" y="346" font-family="Arial, Helvetica, sans-serif" font-size="10" fill="#6b7590" text-anchor="middle">HAWTHORNE BLVD</text>
  <text x="196" y="280" font-family="Arial, Helvetica, sans-serif" font-size="10" fill="#6b7590" text-anchor="end" transform="rotate(-90 196 280)">NW 23RD AVE</text>
  <text x="496" y="280" font-family="Arial, Helvetica, sans-serif" font-size="10" fill="#6b7590" text-anchor="end" transform="rotate(-90 496 280)">NW BROADWAY</text>
  <text x="796" y="280" font-family="Arial, Helvetica, sans-serif" font-size="10" fill="#6b7590" text-anchor="end" transform="rotate(-90 796 280)">MLK BLVD</text>

  <!-- Park labels -->
  <text x="210" y="228" font-family="Arial, Helvetica, sans-serif" font-size="11" fill="#2d6e44" text-anchor="middle">Forest Park</text>
  <text x="810" y="318" font-family="Arial, Helvetica, sans-serif" font-size="11" fill="#2d6e44" text-anchor="middle">Laurelhurst Park</text>

  <!-- River label -->
  <text x="600" y="452" font-family="Arial, Helvetica, sans-serif" font-size="13" fill="#2a5e8a" text-anchor="middle" font-style="italic">Willamette River</text>

  <!-- Location markers -->
  <!-- Home base marker -->
  <circle cx="500" cy="350" r="14" fill="rgba(0,255,136,0.15)" stroke="#00ff88" stroke-width="2"/>
  <circle cx="500" cy="350" r="5" fill="#00ff88"/>
  <line x1="500" y1="336" x2="500" y2="314" stroke="#00ff88" stroke-width="1.5"/>
  <rect x="468" y="290" width="96" height="26" fill="#0b0b1c" rx="3" stroke="#00ff88" stroke-width="1"/>
  <text x="516" y="307" font-family="Courier New, monospace" font-size="10" fill="#00ff88" text-anchor="middle" letter-spacing="1">◈ GRID BASE</text>

  <!-- Secondary marker -->
  <circle cx="800" cy="200" r="10" fill="rgba(0,170,255,0.15)" stroke="#00aaff" stroke-width="1.5"/>
  <circle cx="800" cy="200" r="4" fill="#00aaff"/>
  <rect x="766" y="174" width="90" height="20" fill="#0b0b1c" rx="3" stroke="#00aaff" stroke-width="1"/>
  <text x="811" y="188" font-family="Courier New, monospace" font-size="9" fill="#00aaff" text-anchor="middle">CACHE NODE</text>

  <!-- Waypoint -->
  <polygon points="200,550 208,570 192,570" fill="#ffaa00" opacity="0.9"/>
  <rect x="170" y="524" width="76" height="20" fill="#0b0b1c" rx="3" stroke="#ffaa00" stroke-width="1"/>
  <text x="208" y="538" font-family="Courier New, monospace" font-size="9" fill="#ffaa00" text-anchor="middle">WAYPOINT A</text>

  <!-- Scale bar -->
  <line x1="50" y1="710" x2="200" y2="710" stroke="#8899bb" stroke-width="2"/>
  <line x1="50" y1="704" x2="50" y2="716" stroke="#8899bb" stroke-width="2"/>
  <line x1="200" y1="704" x2="200" y2="716" stroke="#8899bb" stroke-width="2"/>
  <text x="125" y="726" font-family="Courier New, monospace" font-size="10" fill="#8899bb" text-anchor="middle">2 km</text>

  <!-- Compass rose -->
  <circle cx="1130" cy="100" r="30" fill="rgba(11,11,28,0.8)" stroke="#2a3448" stroke-width="1"/>
  <line x1="1130" y1="74" x2="1130" y2="126" stroke="#3a4460" stroke-width="1.5"/>
  <line x1="1104" y1="100" x2="1156" y2="100" stroke="#3a4460" stroke-width="1.5"/>
  <polygon points="1130,74 1125,92 1135,92" fill="#00aaff"/>
  <text x="1130" y="70" font-family="Arial, sans-serif" font-size="11" fill="#00aaff" text-anchor="middle" font-weight="bold">N</text>

  <!-- GRID UI overlay - top bar -->
  <rect width="1200" height="52" fill="rgba(7,7,16,0.92)"/>
  <line x1="0" y1="52" x2="1200" y2="52" stroke="#171830"/>
  <text x="18" y="33" font-family="Courier New, monospace" font-size="18" font-weight="bold" fill="#00ff88" letter-spacing="4">◈ GRID</text>
  <text x="110" y="28" font-family="Courier New, monospace" font-size="9" fill="#8899bb" letter-spacing="1">MAPS &amp; NAVIGATION</text>
  <text x="110" y="42" font-family="Courier New, monospace" font-size="9" fill="#8899bb">ProtoMaps · MapLibre GL · Offline</text>

  <!-- Coordinate display -->
  <text x="400" y="26" font-family="Courier New, monospace" font-size="11" fill="#8899bb">45.5231° N</text>
  <text x="510" y="26" font-family="Courier New, monospace" font-size="11" fill="#8899bb">122.6765° W</text>
  <text x="400" y="42" font-family="Courier New, monospace" font-size="10" fill="#8899bb">Zoom: 13 · Tile: pmtiles</text>

  <!-- Controls -->
  <rect x="700" y="8" width="120" height="34" fill="#0b0b1c" rx="3" stroke="#171830"/>
  <text x="760" y="29" font-family="Courier New, monospace" font-size="11" fill="#8899bb" text-anchor="middle" letter-spacing="1">+ LAYER</text>
  <rect x="832" y="8" width="120" height="34" fill="#0b0b1c" rx="3" stroke="#171830"/>
  <text x="892" y="29" font-family="Courier New, monospace" font-size="11" fill="#8899bb" text-anchor="middle" letter-spacing="1">WAYPOINT</text>
  <rect x="964" y="8" width="110" height="34" fill="#0b0b1c" rx="3" stroke="#171830"/>
  <text x="1019" y="29" font-family="Courier New, monospace" font-size="11" fill="#8899bb" text-anchor="middle" letter-spacing="1">MEASURE</text>

  <!-- Status -->
  <rect x="1086" y="8" width="106" height="34" fill="rgba(0,255,136,0.07)" rx="3" stroke="rgba(0,255,136,0.25)"/>
  <circle cx="1098" cy="25" r="4" fill="#00ff88"/>
  <text x="1110" y="29" font-family="Courier New, monospace" font-size="11" fill="#00ff88">OFFLINE</text>

  <!-- Bottom status bar -->
  <rect y="720" width="1200" height="30" fill="rgba(7,7,16,0.92)"/>
  <line x1="0" y1="720" x2="1200" y2="720" stroke="#171830"/>
  <text x="18" y="738" font-family="Courier New, monospace" font-size="9" fill="#8899bb" letter-spacing="1">planet.pmtiles · 110 GB · PHASE 7 · DOWNLOAD REQUIRED TO ACTIVATE</text>
  <text x="1182" y="738" font-family="Courier New, monospace" font-size="9" fill="#8899bb" text-anchor="end">MapLibre GL JS v4</text>
</svg>
